<?xml version="1.0" encoding="UTF-8" standalone="no"?>
<svg
   version="1.1"
   data-diagram-type="CLASS"
   style="width:603px;height:432px;background:#FFFFFF;"
   width="603px"
   height="432px"
   viewBox="0 0 603 432"
   zoomAndPan="magnify"
   preserveAspectRatio="none"
   contentStyleType="text/css"
   id="svg30"
   sodipodi:docname="dao_uml_example.svg"
   inkscape:version="1.4 (e7c3feb100, 2024-10-09)"
   xmlns:inkscape="http://www.inkscape.org/namespaces/inkscape"
   xmlns:sodipodi="http://sodipodi.sourceforge.net/DTD/sodipodi-0.dtd"
   xmlns="http://www.w3.org/2000/svg"
   xmlns:svg="http://www.w3.org/2000/svg">
  <sodipodi:namedview
     id="namedview30"
     pagecolor="#ffffff"
     bordercolor="#000000"
     borderopacity="0.25"
     inkscape:showpageshadow="2"
     inkscape:pageopacity="0.0"
     inkscape:pagecheckerboard="0"
     inkscape:deskcolor="#d1d1d1"
     showguides="true"
     inkscape:zoom="1.3406201"
     inkscape:cx="270.0243"
     inkscape:cy="179.02163"
     inkscape:window-width="1920"
     inkscape:window-height="975"
     inkscape:window-x="0"
     inkscape:window-y="0"
     inkscape:window-maximized="1"
     inkscape:current-layer="svg30"
     inkscape:export-bgcolor="#ffffffff">
    <sodipodi:guide
       position="230.27224,425.25"
       orientation="0,-1"
       id="guide30"
       inkscape:locked="false" />
    <sodipodi:guide
       position="100.44,425.25"
       orientation="1,0"
       id="guide31"
       inkscape:locked="false" />
    <sodipodi:guide
       position="144.53746,284.66"
       orientation="0,-1"
       id="guide32"
       inkscape:locked="false" />
    <sodipodi:guide
       position="140.86038,127.78872"
       orientation="0,-1"
       id="guide33"
       inkscape:locked="false" />
    <sodipodi:guide
       position="341.5,411.85443"
       orientation="1,0"
       id="guide34"
       inkscape:locked="false" />
    <sodipodi:guide
       position="291.10999,233.63606"
       orientation="1,0"
       id="guide35"
       inkscape:locked="false" />
    <sodipodi:guide
       position="277.09,82.77004"
       orientation="1,0"
       id="guide36"
       inkscape:locked="false" />
    <sodipodi:guide
       position="464.58102,128.03872"
       orientation="1,0"
       id="guide37"
       inkscape:locked="false" />
    <sodipodi:guide
       position="254.36158,396.96"
       orientation="0,-1"
       id="guide4"
       inkscape:locked="false" />
  </sodipodi:namedview>
<?plantuml 1.2026.9beta4?>  <defs
     id="defs1">
    <marker
       style="overflow:visible"
       id="ConcaveTriangle"
       refX="0"
       refY="0"
       orient="auto-start-reverse"
       inkscape:stockid="Concave triangle arrow"
       markerWidth="1"
       markerHeight="1"
       viewBox="0 0 1 1"
       inkscape:isstock="true"
       inkscape:collect="always"
       preserveAspectRatio="xMidYMid">
      <path
         transform="scale(0.7)"
         d="M -2,-4 9,0 -2,4 c 2,-2.33 2,-5.66 0,-8 z"
         style="fill:context-stroke;fill-rule:evenodd;stroke:none"
         id="path7" />
    </marker>
  </defs>
  <g
     id="g8"
     inkscape:export-filename="dao_uml_example.png"
     inkscape:export-xdpi="96"
     inkscape:export-ydpi="96">
    <g
       class="entity"
       data-qualified-name="SaleTerminal"
       id="ent0001"
       data-source-line="3"
       style="font-family:sans-serif"
       transform="translate(-83.748997,-0.24999634)">
      <rect
         x="100.69"
         y="7"
         width="194.328"
         height="80.594002"
         fill="#f1f1f1"
         style="stroke:#181818;stroke-width:0.5"
         rx="2.5"
         ry="2.5"
         id="rect1" />
      <circle
         cx="147.72501"
         cy="23"
         fill="#add1b2"
         style="stroke:#181818;stroke-width:1"
         id="ellipse1"
         r="11" />
      <path
         d="m 150.693,28.641 q -0.578,0.297 -1.218,0.437 -0.641,0.156 -1.344,0.156 -2.5,0 -3.828,-1.64 -1.313,-1.656 -1.313,-4.781 0,-3.125 1.313,-4.782 1.328,-1.656 3.828,-1.656 0.703,0 1.344,0.156 0.656,0.157 1.218,0.453 v 2.719 q -0.625,-0.578 -1.218,-0.844 -0.594,-0.281 -1.219,-0.281 -1.344,0 -2.031,1.078 -0.688,1.063 -0.688,3.157 0,2.093 0.688,3.171 0.687,1.063 2.031,1.063 0.625,0 1.219,-0.266 0.593,-0.281 1.218,-0.859 z"
         fill="#000000"
         id="path1" />
      <text
         x="168.22501"
         y="27.847"
         fill="#000000"
         font-size="14px"
         textLength="91.759003"
         id="text1"
         lengthAdjust="spacing">SaleTerminal</text>
      <line
         x1="101.69"
         y1="39"
         x2="294.01801"
         y2="39"
         style="stroke:#181818;stroke-width:0.5"
         id="line1" />
      <g
         data-visibility-modifier="PRIVATE_FIELD"
         id="g2">
        <rect
           x="108.69"
           y="49.647999"
           width="6"
           height="6"
           fill="none"
           style="stroke:#c82930;stroke-width:1"
           id="rect2" />
      </g>
      <text
         x="120.69"
         y="55.994999"
         fill="#000000"
         font-size="14px"
         textLength="160.692"
         id="text2"
         lengthAdjust="spacing">ArrayList&lt;Sale&gt; sales;</text>
      <g
         data-visibility-modifier="PRIVATE_FIELD"
         id="g3">
        <rect
           x="108.69"
           y="65.945"
           width="6"
           height="6"
           fill="none"
           style="stroke:#c82930;stroke-width:1"
           id="rect3" />
      </g>
      <text
         x="120.69"
         y="72.292"
         fill="#000000"
         font-size="14px"
         textLength="168.328"
         id="text3"
         lengthAdjust="spacing">ProductCatalog catalog;</text>
      <line
         x1="101.69"
         y1="79.594002"
         x2="294.01801"
         y2="79.594002"
         style="stroke:#181818;stroke-width:0.5"
         id="line3" />
    </g>
    <g
       class="entity"
       data-qualified-name="Sale"
       id="ent0002"
       data-source-line="8"
       style="font-family:sans-serif"
       transform="translate(-72.408995,-0.24999634)">
      <rect
         x="89.349998"
         y="147.59"
         width="166.998"
         height="96.890999"
         fill="#f1f1f1"
         style="stroke:#181818;stroke-width:0.5"
         rx="2.5"
         ry="2.5"
         id="rect4" />
      <circle
         cx="153.61501"
         cy="163.59"
         fill="#add1b2"
         style="stroke:#181818;stroke-width:1"
         id="ellipse4"
         r="11" />
      <path
         d="m 156.583,169.231 q -0.578,0.297 -1.218,0.437 -0.641,0.156 -1.344,0.156 -2.5,0 -3.828,-1.64 -1.313,-1.656 -1.313,-4.781 0,-3.125 1.313,-4.782 1.328,-1.656 3.828,-1.656 0.703,0 1.344,0.156 0.656,0.157 1.218,0.453 v 2.719 q -0.625,-0.578 -1.218,-0.844 -0.594,-0.281 -1.219,-0.281 -1.344,0 -2.031,1.078 -0.688,1.063 -0.688,3.157 0,2.093 0.688,3.171 0.687,1.063 2.031,1.063 0.625,0 1.219,-0.266 0.593,-0.281 1.218,-0.859 z"
         fill="#000000"
         id="path4" />
      <text
         x="174.11501"
         y="168.437"
         fill="#000000"
         font-size="14px"
         textLength="29.969"
         id="text4"
         lengthAdjust="spacing">Sale</text>
      <line
         x1="90.349998"
         y1="179.59"
         x2="255.34801"
         y2="179.59"
         style="stroke:#181818;stroke-width:0.5"
         id="line4" />
      <g
         data-visibility-modifier="PRIVATE_FIELD"
         id="g5">
        <rect
           x="97.349998"
           y="190.23801"
           width="6"
           height="6"
           fill="none"
           style="stroke:#c82930;stroke-width:1"
           id="rect5" />
      </g>
      <text
         x="109.35"
         y="196.58501"
         fill="#000000"
         font-size="14px"
         textLength="140.998"
         id="text5"
         lengthAdjust="spacing">SaleReceipt receipt;</text>
      <g
         data-visibility-modifier="PRIVATE_FIELD"
         id="g6">
        <rect
           x="97.349998"
           y="206.535"
           width="6"
           height="6"
           fill="none"
           style="stroke:#c82930;stroke-width:1"
           id="rect6" />
      </g>
      <text
         x="109.35"
         y="212.882"
         fill="#000000"
         font-size="14px"
         textLength="133.451"
         id="text6"
         lengthAdjust="spacing">Payment payment;</text>
      <g
         data-visibility-modifier="PRIVATE_FIELD"
         id="g7">
        <rect
           x="97.349998"
           y="222.832"
           width="6"
           height="6"
           fill="none"
           style="stroke:#c82930;stroke-width:1"
           id="rect7" />
      </g>
      <text
         x="109.35"
         y="229.179"
         fill="#000000"
         font-size="14px"
         textLength="109.013"
         id="text7"
         lengthAdjust="spacing">boolean ended;</text>
      <line
         x1="90.349998"
         y1="236.481"
         x2="255.34801"
         y2="236.481"
         style="stroke:#181818;stroke-width:0.5"
         id="line7" />
    </g>
    <g
       class="entity"
       data-qualified-name="SaleReceipt"
       id="ent0004"
       data-source-line="18"
       style="font-family:sans-serif"
       transform="translate(9.941003,-0.26872733)">
      <rect
         x="7"
         y="304.48001"
         width="235.70599"
         height="113.188"
         fill="#f1f1f1"
         style="stroke:#181818;stroke-width:0.5"
         rx="2.5"
         ry="2.5"
         id="rect10" />
      <circle
         cx="79.160004"
         cy="320.48001"
         fill="#add1b2"
         style="stroke:#181818;stroke-width:1"
         id="ellipse10"
         r="11" />
      <path
         d="m 82.129,326.121 q -0.578,0.297 -1.219,0.437 -0.64,0.156 -1.344,0.156 -2.5,0 -3.828,-1.64 -1.312,-1.656 -1.312,-4.781 0,-3.125 1.312,-4.782 1.328,-1.656 3.828,-1.656 0.704,0 1.344,0.156 0.656,0.157 1.219,0.453 v 2.719 q -0.625,-0.578 -1.219,-0.844 -0.594,-0.281 -1.219,-0.281 -1.343,0 -2.031,1.078 -0.687,1.063 -0.687,3.157 0,2.093 0.687,3.171 0.688,1.063 2.031,1.063 0.625,0 1.219,-0.266 0.594,-0.281 1.219,-0.859 z"
         fill="#000000"
         id="path10" />
      <text
         x="99.660004"
         y="325.327"
         fill="#000000"
         font-size="14px"
         textLength="82.886002"
         id="text10"
         lengthAdjust="spacing">SaleReceipt</text>
      <line
         x1="8"
         y1="336.48001"
         x2="241.70599"
         y2="336.48001"
         style="stroke:#181818;stroke-width:0.5"
         id="line10" />
      <g
         data-visibility-modifier="PRIVATE_FIELD"
         id="g11">
        <rect
           x="15"
           y="347.12799"
           width="6"
           height="6"
           fill="none"
           style="stroke:#c82930;stroke-width:1"
           id="rect11" />
      </g>
      <text
         x="27"
         y="353.47501"
         fill="#000000"
         font-size="14px"
         textLength="209.70599"
         id="text11"
         lengthAdjust="spacing">ArrayList&lt;ReceiptLine&gt; lines;</text>
      <g
         data-visibility-modifier="PRIVATE_FIELD"
         id="g12">
        <rect
           x="15"
           y="363.42499"
           width="6"
           height="6"
           fill="none"
           style="stroke:#c82930;stroke-width:1"
           id="rect12" />
      </g>
      <text
         x="27"
         y="369.772"
         fill="#000000"
         font-size="14px"
         textLength="100.188"
         id="text12"
         lengthAdjust="spacing">float discount;</text>
      <g
         data-visibility-modifier="PRIVATE_FIELD"
         id="g13">
        <rect
           x="15"
           y="379.72198"
           width="6"
           height="6"
           fill="none"
           style="stroke:#c82930;stroke-width:1"
           id="rect13" />
      </g>
      <text
         x="27"
         y="386.069"
         fill="#000000"
         font-size="14px"
         textLength="110.729"
         id="text13"
         lengthAdjust="spacing">LocalDate date;</text>
      <g
         data-visibility-modifier="PRIVATE_FIELD"
         id="g14">
        <rect
           x="15"
           y="396.01901"
           width="6"
           height="6"
           fill="none"
           style="stroke:#c82930;stroke-width:1"
           id="rect14" />
      </g>
      <text
         x="27"
         y="402.366"
         fill="#000000"
         font-size="14px"
         textLength="112.458"
         id="text14"
         lengthAdjust="spacing">LocalTime hour;</text>
      <line
         x1="8"
         y1="409.668"
         x2="241.70599"
         y2="409.668"
         style="stroke:#181818;stroke-width:0.5"
         id="line14" />
    </g>
    <g
       class="entity"
       data-qualified-name="Payment"
       id="ent0005"
       data-source-line="25"
       style="font-family:sans-serif"
       transform="translate(-72.408991,-16.549991)">
      <rect
         x="291.35999"
         y="163.89"
         width="128.983"
         height="64.296997"
         fill="#f1f1f1"
         style="stroke:#181818;stroke-width:0.5"
         rx="2.5"
         ry="2.5"
         id="rect15" />
      <circle
         cx="322.13901"
         cy="179.89"
         fill="#add1b2"
         style="stroke:#181818;stroke-width:1"
         id="ellipse15"
         r="11" />
      <path
         d="m 325.107,185.531 q -0.578,0.297 -1.218,0.437 -0.641,0.156 -1.344,0.156 -2.5,0 -3.828,-1.64 -1.313,-1.656 -1.313,-4.781 0,-3.125 1.313,-4.782 1.328,-1.656 3.828,-1.656 0.703,0 1.344,0.156 0.656,0.157 1.218,0.453 v 2.719 q -0.625,-0.578 -1.218,-0.844 -0.594,-0.281 -1.219,-0.281 -1.344,0 -2.031,1.078 -0.688,1.063 -0.688,3.157 0,2.093 0.688,3.171 0.687,1.063 2.031,1.063 0.625,0 1.219,-0.266 0.593,-0.281 1.218,-0.859 z"
         fill="#000000"
         id="path15" />
      <text
         x="339.64499"
         y="184.737"
         fill="#000000"
         font-size="14px"
         textLength="61.919998"
         id="text15"
         lengthAdjust="spacing">Payment</text>
      <line
         x1="292.35999"
         y1="195.89"
         x2="419.34299"
         y2="195.89"
         style="stroke:#181818;stroke-width:0.5"
         id="line15" />
      <g
         data-visibility-modifier="PRIVATE_FIELD"
         id="g16">
        <rect
           x="299.35999"
           y="206.53799"
           width="6"
           height="6"
           fill="none"
           style="stroke:#c82930;stroke-width:1"
           id="rect16" />
      </g>
      <text
         x="311.35999"
         y="212.88499"
         fill="#000000"
         font-size="14px"
         textLength="102.983"
         id="text16"
         lengthAdjust="spacing">float payment;</text>
      <line
         x1="292.35999"
         y1="220.187"
         x2="419.34299"
         y2="220.187"
         style="stroke:#181818;stroke-width:0.5"
         id="line16" />
    </g>
    <g
       class="entity"
       data-qualified-name="ReceiptLine"
       id="ent0006"
       data-source-line="29"
       style="font-family:sans-serif"
       transform="translate(9.941007,-16.587446)">
      <rect
         x="277.34"
         y="320.78"
         width="143.03101"
         height="80.594002"
         fill="#f1f1f1"
         style="stroke:#181818;stroke-width:0.5"
         rx="2.5"
         ry="2.5"
         id="rect17" />
      <circle
         cx="305.362"
         cy="336.78"
         fill="#add1b2"
         style="stroke:#181818;stroke-width:1"
         id="ellipse17"
         r="11" />
      <path
         d="m 308.331,342.421 q -0.578,0.297 -1.219,0.437 -0.64,0.156 -1.343,0.156 -2.5,0 -3.829,-1.64 -1.312,-1.656 -1.312,-4.781 0,-3.125 1.312,-4.782 1.329,-1.656 3.829,-1.656 0.703,0 1.343,0.156 0.657,0.157 1.219,0.453 v 2.719 q -0.625,-0.578 -1.219,-0.844 -0.593,-0.281 -1.218,-0.281 -1.344,0 -2.032,1.078 -0.687,1.063 -0.687,3.157 0,2.093 0.687,3.171 0.688,1.063 2.032,1.063 0.625,0 1.218,-0.266 0.594,-0.281 1.219,-0.859 z"
         fill="#000000"
         id="path17" />
      <text
         x="322.25601"
         y="341.62701"
         fill="#000000"
         font-size="14px"
         textLength="82.093002"
         id="text17"
         lengthAdjust="spacing">ReceiptLine</text>
      <line
         x1="278.34"
         y1="352.78"
         x2="419.371"
         y2="352.78"
         style="stroke:#181818;stroke-width:0.5"
         id="line17" />
      <g
         data-visibility-modifier="PRIVATE_FIELD"
         id="g18">
        <rect
           x="285.34"
           y="363.42801"
           width="6"
           height="6"
           fill="none"
           style="stroke:#c82930;stroke-width:1"
           id="rect18" />
      </g>
      <text
         x="297.34"
         y="369.77499"
         fill="#000000"
         font-size="14px"
         textLength="117.031"
         id="text18"
         lengthAdjust="spacing">Product product;</text>
      <g
         data-visibility-modifier="PRIVATE_FIELD"
         id="g19">
        <rect
           x="285.34"
           y="379.72501"
           width="6"
           height="6"
           fill="none"
           style="stroke:#c82930;stroke-width:1"
           id="rect19" />
      </g>
      <text
         x="297.34"
         y="386.07199"
         fill="#000000"
         font-size="14px"
         textLength="85.783997"
         id="text19"
         lengthAdjust="spacing">int quantity;</text>
      <line
         x1="278.34"
         y1="393.37399"
         x2="419.371"
         y2="393.37399"
         style="stroke:#181818;stroke-width:0.5"
         id="line19" />
    </g>
    <g
       class="entity"
       data-qualified-name="Product"
       id="ent0007"
       data-source-line="34"
       style="font-family:sans-serif"
       transform="translate(9.941003,-0.26872733)">
      <rect
         x="454.89001"
         y="304.48001"
         width="133.933"
         height="113.188"
         fill="#f1f1f1"
         style="stroke:#181818;stroke-width:0.5"
         rx="2.5"
         ry="2.5"
         id="rect20" />
      <circle
         cx="491.59"
         cy="320.48001"
         fill="#add1b2"
         style="stroke:#181818;stroke-width:1"
         id="ellipse20"
         r="11" />
      <path
         d="m 494.559,326.121 q -0.578,0.297 -1.219,0.437 -0.64,0.156 -1.344,0.156 -2.5,0 -3.828,-1.64 -1.312,-1.656 -1.312,-4.781 0,-3.125 1.312,-4.782 1.328,-1.656 3.828,-1.656 0.704,0 1.344,0.156 0.656,0.157 1.219,0.453 v 2.719 q -0.625,-0.578 -1.219,-0.844 -0.594,-0.281 -1.219,-0.281 -1.343,0 -2.031,1.078 -0.687,1.063 -0.687,3.157 0,2.093 0.687,3.171 0.688,1.063 2.031,1.063 0.625,0 1.219,-0.266 0.594,-0.281 1.219,-0.859 z"
         fill="#000000"
         id="path20" />
      <text
         x="510.41199"
         y="325.327"
         fill="#000000"
         font-size="14px"
         textLength="53.709999"
         id="text20"
         lengthAdjust="spacing">Product</text>
      <line
         x1="455.89001"
         y1="336.48001"
         x2="587.823"
         y2="336.48001"
         style="stroke:#181818;stroke-width:0.5"
         id="line20" />
      <g
         data-visibility-modifier="PRIVATE_FIELD"
         id="g21">
        <rect
           x="462.89001"
           y="347.12799"
           width="6"
           height="6"
           fill="none"
           style="stroke:#c82930;stroke-width:1"
           id="rect21" />
      </g>
      <text
         x="474.89001"
         y="353.47501"
         fill="#000000"
         font-size="14px"
         textLength="107.933"
         id="text21"
         lengthAdjust="spacing">String barcode;</text>
      <g
         data-visibility-modifier="PRIVATE_FIELD"
         id="g22">
        <rect
           x="462.89001"
           y="363.42499"
           width="6"
           height="6"
           fill="none"
           style="stroke:#c82930;stroke-width:1"
           id="rect22" />
      </g>
      <text
         x="474.89001"
         y="369.772"
         fill="#000000"
         font-size="14px"
         textLength="90.651001"
         id="text22"
         lengthAdjust="spacing">String name;</text>
      <g
         data-visibility-modifier="PRIVATE_FIELD"
         id="g23">
        <rect
           x="462.89001"
           y="379.72198"
           width="6"
           height="6"
           fill="none"
           style="stroke:#c82930;stroke-width:1"
           id="rect23" />
      </g>
      <text
         x="474.89001"
         y="386.069"
         fill="#000000"
         font-size="14px"
         textLength="75.461998"
         id="text23"
         lengthAdjust="spacing">float price;</text>
      <g
         data-visibility-modifier="PRIVATE_FIELD"
         id="g24">
        <rect
           x="462.89001"
           y="396.01901"
           width="6"
           height="6"
           fill="none"
           style="stroke:#c82930;stroke-width:1"
           id="rect24" />
      </g>
      <text
         x="474.89001"
         y="402.366"
         fill="#000000"
         font-size="14px"
         textLength="78.879997"
         id="text24"
         lengthAdjust="spacing">float taxes;</text>
      <line
         x1="455.89001"
         y1="409.668"
         x2="587.823"
         y2="409.668"
         style="stroke:#181818;stroke-width:0.5"
         id="line24" />
    </g>
    <g
       id="g37"
       transform="translate(-83.748997,-12.249996)">
      <path
         d="m 307.34,47.29 c 15.40924,0 18.75076,0 34.16,0"
         style="font-family:sans-serif;stroke:#181818;stroke-width:1;stroke-dasharray:none"
         fill="none"
         id="SaleTerminal-backto-ProductCatalog"
         codeLine="42" />
      <polygon
         points="301.34,43.29 295.34,47.29 301.34,51.29 307.34,47.29 "
         fill="#181818"
         style="font-family:sans-serif;stroke:#181818;stroke-width:1;stroke-linejoin:miter;stroke-miterlimit:10"
         id="polygon25"
         transform="translate(0.82939319)" />
    </g>
    <g
       id="g42"
       transform="translate(-83.748997,-0.24999634)">
      <path
         d="m 526.51,361.06127 c 11.32,0 10.63,0 21.94,0"
         style="font-family:sans-serif;stroke:#181818;stroke-width:1"
         fill="none"
         id="ReceiptLine-backto-Product"
         codeLine="49" />
      <polygon
         points="432.82,361.08 426.82,357.08 420.82,361.08 426.82,365.08 "
         fill="#181818"
         style="font-family:sans-serif;stroke:#181818;stroke-width:1;stroke-linejoin:miter;stroke-miterlimit:10"
         id="polygon29"
         transform="translate(94.392394,-0.01873099)" />
    </g>
    <g
       id="g41"
       transform="translate(-83.748997,-0.24999634)">
      <path
         d="m 348.67,361.06127 c 11.53209,0 10.82791,0 22.36,0"
         style="font-family:sans-serif;stroke:#181818;stroke-width:1;stroke-dasharray:none"
         fill="none"
         id="SaleReceipt-backto-ReceiptLine"
         codeLine="50" />
      <polygon
         points="248.98,357.08 242.98,361.08 248.98,365.08 254.98,361.08 "
         fill="#181818"
         style="font-family:sans-serif;stroke:#181818;stroke-width:1;stroke-linejoin:miter;stroke-miterlimit:10"
         id="polygon30"
         transform="translate(94.567381,-0.01873099)" />
    </g>
    <g
       id="g38"
       transform="translate(-83.748997,-0.24999634)">
      <polygon
         points="307.34,47.29 301.34,43.29 295.34,47.29 301.34,51.29 "
         fill="#181818"
         style="font-family:sans-serif;stroke:#181818;stroke-width:1;stroke-linejoin:miter;stroke-miterlimit:10"
         id="polygon38"
         transform="rotate(90,220.70664,14.112026)" />
      <path
         style="fill:#000000;stroke:#181818;stroke-width:1;stroke-dasharray:none;stroke-opacity:1"
         d="M 187.52867,94.745386 V 147.59 v 0"
         id="path38" />
    </g>
    <g
       id="g39"
       transform="translate(-83.748997,-0.24999634)">
      <polygon
         points="268.85,196.04 262.85,192.04 256.85,196.04 262.85,200.04 "
         fill="#181818"
         style="font-family:sans-serif;stroke:#181818;stroke-width:1;stroke-linejoin:miter;stroke-miterlimit:10"
         id="polygon28"
         transform="translate(11.989389,-0.5)" />
      <path
         style="fill:#000000;stroke:#181818;stroke-width:1;stroke-dasharray:none;stroke-opacity:1"
         d="m 274.83939,195.54 h 27.8606"
         id="path39" />
    </g>
    <g
       id="g40"
       transform="translate(-83.748997,-0.24999634)">
      <polygon
         points="301.34,51.29 307.34,47.29 301.34,43.29 295.34,47.29 "
         fill="#181818"
         style="font-family:sans-serif;stroke:#181818;stroke-width:1;stroke-linejoin:miter;stroke-miterlimit:10"
         id="polygon37"
         transform="rotate(90,136.90982,87.202202)" />
      <path
         style="fill:#000000;stroke:#181818;stroke-width:1;stroke-dasharray:none;stroke-opacity:1"
         d="m 176.82202,251.63238 v 52.5789"
         id="path40" />
    </g>
    <g
       class="entity"
       data-qualified-name="ProductCatalog"
       id="ent0003-9"
       data-source-line="14"
       style="font-family:sans-serif"
       transform="translate(-144.11899,-16.539997)">
      <rect
         x="402.12"
         y="23.290001"
         width="139.47501"
         height="48"
         fill="#f1f1f1"
         style="stroke:#181818;stroke-width:0.5"
         rx="2.5"
         ry="2.5"
         id="rect8-3" />
      <circle
         cx="417.12"
         cy="39.290001"
         fill="#add1b2"
         style="stroke:#181818;stroke-width:1"
         id="ellipse8-6"
         r="11" />
      <path
         d="m 420.089,44.931 q -0.578,0.297 -1.219,0.437 -0.641,0.156 -1.344,0.156 -2.5,0 -3.828,-1.64 -1.312,-1.656 -1.312,-4.781 0,-3.125 1.312,-4.782 1.328,-1.656 3.828,-1.656 0.703,0 1.344,0.156 0.656,0.157 1.219,0.453 v 2.719 q -0.625,-0.578 -1.219,-0.844 -0.594,-0.281 -1.219,-0.281 -1.343,0 -2.031,1.078 -0.687,1.063 -0.687,3.157 0,2.093 0.687,3.171 0.688,1.063 2.031,1.063 0.625,0 1.219,-0.266 0.594,-0.281 1.219,-0.859 z"
         fill="#000000"
         id="path8-0" />
      <text
         x="431.12"
         y="44.137001"
         fill="#000000"
         font-size="14px"
         textLength="107.475"
         id="text8-6"
         lengthAdjust="spacing">ProductCatalog</text>
      <line
         x1="403.12"
         y1="55.290001"
         x2="540.59497"
         y2="55.290001"
         style="stroke:#181818;stroke-width:0.5"
         id="line8-2" />
      <line
         x1="403.12"
         y1="63.290001"
         x2="540.59497"
         y2="63.290001"
         style="stroke:#181818;stroke-width:0.5"
         id="line9-6" />
    </g>
    <g
       class="entity"
       data-qualified-name="ProductDAO"
       id="ent0008"
       data-source-line="39"
       style="font-family:sans-serif"
       transform="translate(55.08102,-16.549999)">
      <rect
         x="409.75"
         y="163.89"
         width="222.21201"
         height="64.296997"
         fill="#f1f1f1"
         style="stroke:#181818;stroke-width:0.5"
         rx="2.5"
         ry="2.5"
         id="rect24-8" />
      <circle
         cx="474.06299"
         cy="179.89"
         fill="#add1b2"
         style="stroke:#181818;stroke-width:1"
         id="ellipse24"
         r="11" />
      <path
         d="m 477.031,185.531 q -0.578,0.297 -1.218,0.437 -0.641,0.156 -1.344,0.156 -2.5,0 -3.828,-1.64 -1.313,-1.656 -1.313,-4.781 0,-3.125 1.313,-4.782 1.328,-1.656 3.828,-1.656 0.703,0 1.344,0.156 0.656,0.157 1.218,0.453 v 2.719 q -0.625,-0.578 -1.218,-0.844 -0.594,-0.281 -1.219,-0.281 -1.344,0 -2.031,1.078 -0.688,1.063 -0.688,3.157 0,2.093 0.688,3.171 0.687,1.063 2.031,1.063 0.625,0 1.219,-0.266 0.593,-0.281 1.218,-0.859 z"
         fill="#000000"
         id="path24" />
      <text
         x="494.56299"
         y="184.737"
         fill="#000000"
         font-size="14px"
         textLength="85.086998"
         id="text24-7"
         lengthAdjust="spacing">ProductDAO</text>
      <line
         x1="410.75"
         y1="195.89"
         x2="630.96198"
         y2="195.89"
         style="stroke:#181818;stroke-width:0.5"
         id="line24-9" />
      <text
         x="415.75"
         y="212.88499"
         fill="#000000"
         font-size="14px"
         textLength="210.21201"
         id="text25"
         lengthAdjust="spacing">ArrayList&lt;Product&gt; products;</text>
      <line
         x1="410.75"
         y1="220.187"
         x2="630.96198"
         y2="220.187"
         style="stroke:#181818;stroke-width:0.5"
         id="line25" />
    </g>
    <g
       id="g4">
      <polygon
         points="301.34,43.29 295.34,47.29 301.34,51.29 307.34,47.29 "
         fill="#181818"
         style="font-family:sans-serif;stroke:#181818;stroke-width:1;stroke-linejoin:miter;stroke-miterlimit:10"
         id="polygon39"
         transform="rotate(90,334.2048,251.65318)" />
      <path
         style="fill:none;stroke:#000000;stroke-width:1;stroke-linecap:round;stroke-linejoin:round;stroke-dasharray:none"
         d="m 538.56798,218.78619 v 84.99263"
         id="path2" />
    </g>
    <path
       style="fill:none;stroke:#000000;stroke-width:0.999913;stroke-linecap:square;stroke-linejoin:round;stroke-dasharray:none;marker-end:url(#ConcaveTriangle)"
       d="M 397.97423,35.040124 H 538.93429 V 140.7909"
       id="path5" />
  </g>
</svg>
